# xmcd
# 
# Track frame offsets:
#     150
#     16417
#     33621
#     49836
#     64283
#     80702
#     97460
#     115239
#     135498
#     150785
#     166210
#     183489
#     199054
#     214567
# 
# Disc length: 3121
# 
# Revision: 4
# Processed by: cddbd v1.5.2PL0 Copyright (c) Steve Scherf et al.
# Submitted via: fre:ac v1.0.27
# 
DISCID=c10c2f0e
DTITLE=Various Artist - Rec 54
DYEAR=0
DGENRE=Top 40
TTITLE0=O Zone - Dragostea Din Tei
TTITLE1=Paradisio - Bailando
TTITLE2=Pato Banton - Baby Come Back
TTITLE3=Peter Allen - I Go To Rio
TTITLE4=Peter Andre - Mysterious Girl (Radio Edit)
TTITLE5=Peter Tosh and Mick Jagger - (You Gotta Walk) Don't Look Back
TTITLE6=Playahitty - The Summer Is Magic
TTITLE7=Ricky Martin - María
TTITLE8=Righeira - No Tengo Dinero
TTITLE9=Ritmo Dynamic - Calinda
TTITLE10=Sabrina - Boys (Summertime Love)
TTITLE11=Sailor - La Cumbia (Radio Mix)
TTITLE12=Santa Esmeralda and Leroy Gomez - Don't Let Me Be Misunderstood
TTITLE13=Santana and The Product G&B - Maria Maria (Radio Mix)
EXTD=OTS
EXTT0=
EXTT1=
EXTT2=
EXTT3=
EXTT4=
EXTT5=
EXTT6=
EXTT7=
EXTT8=
EXTT9=
EXTT10=
EXTT11=
EXTT12=
EXTT13=
PLAYORDER=
